<?xml version="1.0" encoding="UTF-8" standalone="no"?>
<svg
   xmlns:dc="http://purl.org/dc/elements/1.1/"
   xmlns:cc="http://creativecommons.org/ns#"
   xmlns:rdf="http://www.w3.org/1999/02/22-rdf-syntax-ns#"
   xmlns:svg="http://www.w3.org/2000/svg"
   xmlns="http://www.w3.org/2000/svg"
   xmlns:xlink="http://www.w3.org/1999/xlink"
   xmlns:sodipodi="http://sodipodi.sourceforge.net/DTD/sodipodi-0.dtd"
   xmlns:inkscape="http://www.inkscape.org/namespaces/inkscape"
   viewBox="0 0 24 24"
   version="1.1"
   id="svg4"
   sodipodi:docname="stopwatch.svg"
   inkscape:version="1.0.1 (3bc2e813f5, 2020-09-07)">
  <metadata
     id="metadata10">
    <rdf:RDF>
      <cc:Work
         rdf:about="">
        <dc:format>image/svg+xml</dc:format>
        <dc:type
           rdf:resource="http://purl.org/dc/dcmitype/StillImage" />
      </cc:Work>
    </rdf:RDF>
  </metadata>
  <defs
     id="defs8">
    <linearGradient
       inkscape:collect="always"
       id="linearGradient16">
      <stop
         style="stop-color:#fcbf00;stop-opacity:1"
         offset="0"
         id="stop12" />
      <stop
         style="stop-color:#fd0000;stop-opacity:1"
         offset="1"
         id="stop14" />
    </linearGradient>
    <linearGradient
       inkscape:collect="always"
       xlink:href="#linearGradient16"
       id="linearGradient18"
       x1="5.7048678"
       y1="7.0602589"
       x2="17.776937"
       y2="17.992516"
       gradientUnits="userSpaceOnUse" />
  </defs>
  <sodipodi:namedview
     pagecolor="#ffffff"
     bordercolor="#666666"
     borderopacity="1"
     objecttolerance="10"
     gridtolerance="10"
     guidetolerance="10"
     inkscape:pageopacity="0"
     inkscape:pageshadow="2"
     inkscape:window-width="1920"
     inkscape:window-height="1053"
     id="namedview6"
     showgrid="false"
     inkscape:zoom="25.416667"
     inkscape:cx="12.039344"
     inkscape:cy="12.039344"
     inkscape:window-x="0"
     inkscape:window-y="27"
     inkscape:window-maximized="1"
     inkscape:current-layer="svg4" />
  <path
     d="M18.3,8.59l.91-.9a1,1,0,0,0-1.42-1.42l-.9.91a8,8,0,0,0-9.79,0l-.91-.92A1,1,0,0,0,4.77,7.69l.92.91A7.92,7.92,0,0,0,4,13.5,8,8,0,1,0,18.3,8.59ZM12,19.5a6,6,0,1,1,6-6A6,6,0,0,1,12,19.5Zm-2-15h4a1,1,0,0,0,0-2H10a1,1,0,0,0,0,2Zm3,6a1,1,0,0,0-2,0v1.89a1.5,1.5,0,1,0,2,0Z"
     id="path2"
     style="fill:url(#linearGradient18);fill-opacity:1" />
</svg>
